<?xml version="1.0" encoding="UTF-8" standalone="no"?>

<svg>
<path d="m 636.43996,171.98266 c -25.14471,-25.14004 -50.2847,-50.28003 -75.4247,-75.424733 -1.93239,-1.927683 -4.11458,-2.662936 -6.20722,-2.573385 -2.09264,-0.09897 -4.28426,0.64099 -6.21666,2.573385 -34.03372,34.033733 -68.06276,68.062733 -102.09178,102.096503 -29.60806,29.60336 -59.21142,59.21138 -88.82891,88.8242 0,0 0,0 0,0.009 l -28.96236,28.95766 c -0.82009,0.82013 -0.74469,2.23407 0.17438,3.14367 l 9.11525,9.11525 c 0.90965,0.91436 2.31888,0.99447 3.13897,0.17439 l 7.92753,-7.93225 c 0.009,-0.005 0.009,-0.009 0.0142,-0.009 34.02902,-34.03838 68.05803,-68.06268 102.09175,-102.09641 34.54744,-34.54275 69.09023,-69.08553 103.63298,-103.63299 21.00183,20.99713 42.00367,41.99896 63.00079,62.99613 -28.79269,28.79736 -57.59009,57.59476 -86.37806,86.3875 -46.04762,46.05223 -134.98021,137.40268 -157.37243,162.21748 -41.83872,0 -84.37026,0 -126.41634,0 -46.89122,0 -139.14661,0 -191.896282,0 -24.301049,0 -25.25782,-11.08064 2.333015,-38.79402 0.136682,-0.43832 -0.131969,-2.10679 -0.697548,-1.64956 l -59.5554822,51.37339 c -4.760291,3.53487 -2.6252297,7.92282 4.2371303,7.92282 l 14.8276039,0 c 0,0 3.680975,0 9.888204,0 23.858012,0 85.147929,0 119.337199,0 65.54119,0 131.0871,0 196.62827,0 11.387,0 22.32624,0 34.41078,0 1.57891,0 69.03836,-70.20722 99.89541,-101.06899 46.05231,-46.05228 92.09988,-92.48633 138.14744,-138.5386 7.08388,-7.0886 14.16777,-14.361 21.25164,-21.44488 1.92768,-1.92768 2.66294,-4.20886 2.57339,-6.3015 0.0942,-2.10678 -0.64099,-4.38795 -2.5781,-6.32506 z"/>
</svg>
